<mxfile host="app.diagrams.net" modified="2022-05-23T23:46:59.993Z" agent="5.0 (Windows NT 10.0; Win64; x64) AppleWebKit/537.36 (KHTML, like Gecko) Chrome/101.0.4951.67 Safari/537.36" etag="nrZbTDFIj6tFb3lF56m6" version="18.1.1" type="github" pages="4">
  <diagram id="47KrEkZLhTzOhG2FSN4O" name="Full Stack">
    <mxGraphModel dx="460" dy="744" grid="1" gridSize="10" guides="1" tooltips="1" connect="1" arrows="1" fold="1" page="1" pageScale="1" pageWidth="850" pageHeight="1100" math="0" shadow="0">
      <root>
        <mxCell id="0" />
        <mxCell id="1" parent="0" />
        <mxCell id="dLUs6U6uPm_U_Gfk23dq-5" style="edgeStyle=orthogonalEdgeStyle;rounded=0;orthogonalLoop=1;jettySize=auto;html=1;startArrow=classic;startFill=1;" parent="1" source="dLUs6U6uPm_U_Gfk23dq-1" target="dLUs6U6uPm_U_Gfk23dq-4" edge="1">
          <mxGeometry relative="1" as="geometry">
            <mxPoint x="340" y="214.5" as="targetPoint" />
          </mxGeometry>
        </mxCell>
        <UserObject label="Web" link="data:page/id,PvW_enq9UGXB3ru8nlyR" id="dLUs6U6uPm_U_Gfk23dq-1">
          <mxCell style="sketch=0;pointerEvents=1;shadow=0;dashed=0;html=1;strokeColor=none;fillColor=#505050;labelPosition=center;verticalLabelPosition=bottom;verticalAlign=top;outlineConnect=0;align=center;shape=mxgraph.office.concepts.website;" parent="1" vertex="1">
            <mxGeometry x="250" y="184.5" width="59" height="49" as="geometry" />
          </mxCell>
        </UserObject>
        <mxCell id="dLUs6U6uPm_U_Gfk23dq-3" style="edgeStyle=orthogonalEdgeStyle;rounded=0;orthogonalLoop=1;jettySize=auto;html=1;" parent="1" source="dLUs6U6uPm_U_Gfk23dq-2" target="dLUs6U6uPm_U_Gfk23dq-1" edge="1">
          <mxGeometry relative="1" as="geometry">
            <mxPoint x="220" y="209" as="targetPoint" />
          </mxGeometry>
        </mxCell>
        <mxCell id="dLUs6U6uPm_U_Gfk23dq-2" value="User" style="sketch=0;outlineConnect=0;fontColor=#232F3E;gradientColor=none;strokeColor=#232F3E;fillColor=#ffffff;dashed=0;verticalLabelPosition=bottom;verticalAlign=top;align=center;html=1;fontSize=12;fontStyle=0;aspect=fixed;shape=mxgraph.aws4.resourceIcon;resIcon=mxgraph.aws4.user;" parent="1" vertex="1">
          <mxGeometry x="90" y="179" width="60" height="60" as="geometry" />
        </mxCell>
        <mxCell id="dLUs6U6uPm_U_Gfk23dq-10" style="edgeStyle=orthogonalEdgeStyle;rounded=0;orthogonalLoop=1;jettySize=auto;html=1;startArrow=classic;startFill=1;endArrow=classic;endFill=1;" parent="1" source="dLUs6U6uPm_U_Gfk23dq-4" target="dLUs6U6uPm_U_Gfk23dq-9" edge="1">
          <mxGeometry relative="1" as="geometry" />
        </mxCell>
        <mxCell id="dLUs6U6uPm_U_Gfk23dq-12" style="edgeStyle=orthogonalEdgeStyle;rounded=0;orthogonalLoop=1;jettySize=auto;html=1;startArrow=classic;startFill=1;endArrow=classic;endFill=1;" parent="1" source="dLUs6U6uPm_U_Gfk23dq-4" target="dLUs6U6uPm_U_Gfk23dq-11" edge="1">
          <mxGeometry relative="1" as="geometry" />
        </mxCell>
        <UserObject label="Server 1" link="data:page/id,Duz-_O268H7gZ4dPwLsp" id="dLUs6U6uPm_U_Gfk23dq-4">
          <mxCell style="sketch=0;outlineConnect=0;fontColor=#232F3E;gradientColor=none;fillColor=#232F3D;strokeColor=none;dashed=0;verticalLabelPosition=bottom;verticalAlign=top;align=center;html=1;fontSize=12;fontStyle=0;aspect=fixed;pointerEvents=1;shape=mxgraph.aws4.traditional_server;" parent="1" vertex="1">
            <mxGeometry x="440" y="180" width="33.46" height="58" as="geometry" />
          </mxCell>
        </UserObject>
        <mxCell id="dLUs6U6uPm_U_Gfk23dq-9" value="DB" style="shape=datastore;whiteSpace=wrap;html=1;" parent="1" vertex="1">
          <mxGeometry x="434.23" y="320" width="45" height="50" as="geometry" />
        </mxCell>
        <UserObject label="Server 2" link="data:page/id,AcOgOhmYx5mgDnrSKiOU" id="dLUs6U6uPm_U_Gfk23dq-11">
          <mxCell style="sketch=0;outlineConnect=0;fontColor=#232F3E;gradientColor=none;fillColor=#232F3D;strokeColor=none;dashed=0;verticalLabelPosition=bottom;verticalAlign=top;align=center;html=1;fontSize=12;fontStyle=0;aspect=fixed;pointerEvents=1;shape=mxgraph.aws4.traditional_server;" parent="1" vertex="1">
            <mxGeometry x="580" y="180" width="33.46" height="58" as="geometry" />
          </mxCell>
        </UserObject>
        <mxCell id="dLUs6U6uPm_U_Gfk23dq-13" value="&lt;font style=&quot;font-size: 10px;&quot;&gt;Express&lt;/font&gt;" style="text;html=1;align=center;verticalAlign=middle;resizable=0;points=[];autosize=1;strokeColor=none;fillColor=none;" parent="1" vertex="1">
          <mxGeometry x="431.73" y="160" width="50" height="20" as="geometry" />
        </mxCell>
        <mxCell id="dLUs6U6uPm_U_Gfk23dq-14" value="&lt;font style=&quot;font-size: 10px;&quot;&gt;Flask&lt;/font&gt;" style="text;html=1;align=center;verticalAlign=middle;resizable=0;points=[];autosize=1;strokeColor=none;fillColor=none;" parent="1" vertex="1">
          <mxGeometry x="576.73" y="160" width="40" height="20" as="geometry" />
        </mxCell>
      </root>
    </mxGraphModel>
  </diagram>
  <diagram id="PvW_enq9UGXB3ru8nlyR" name="Web Routers">
    <mxGraphModel dx="1778" dy="943" grid="1" gridSize="10" guides="1" tooltips="1" connect="1" arrows="1" fold="1" page="1" pageScale="1" pageWidth="1100" pageHeight="1700" math="0" shadow="0">
      <root>
        <mxCell id="0" />
        <mxCell id="1" parent="0" />
        <mxCell id="g_RVh42yEwUMsMvVFJ3A-8" value="Dashboard Page" style="swimlane;fontStyle=0;childLayout=stackLayout;horizontal=1;startSize=30;horizontalStack=0;resizeParent=1;resizeParentMax=0;resizeLast=0;collapsible=1;marginBottom=0;fontSize=16;" parent="1" vertex="1">
          <mxGeometry x="140" y="380" width="220" height="100" as="geometry" />
        </mxCell>
        <mxCell id="g_RVh42yEwUMsMvVFJ3A-9" value="1. website introduction &amp; statistics " style="text;strokeColor=none;fillColor=none;align=left;verticalAlign=middle;spacingLeft=4;spacingRight=4;overflow=hidden;points=[[0,0.5],[1,0.5]];portConstraint=eastwest;rotatable=0;fontSize=16;whiteSpace=wrap;" parent="g_RVh42yEwUMsMvVFJ3A-8" vertex="1">
          <mxGeometry y="30" width="220" height="70" as="geometry" />
        </mxCell>
        <mxCell id="g_RVh42yEwUMsMvVFJ3A-13" value="" style="shape=flexArrow;endArrow=classic;html=1;rounded=0;fontSize=16;shadow=0;fillColor=#595959;entryX=0;entryY=0.5;entryDx=0;entryDy=0;" parent="1" target="g_RVh42yEwUMsMvVFJ3A-9" edge="1">
          <mxGeometry width="50" height="50" relative="1" as="geometry">
            <mxPoint x="30" y="445" as="sourcePoint" />
            <mxPoint x="120" y="440" as="targetPoint" />
          </mxGeometry>
        </mxCell>
        <mxCell id="g_RVh42yEwUMsMvVFJ3A-32" style="edgeStyle=orthogonalEdgeStyle;rounded=0;orthogonalLoop=1;jettySize=auto;html=1;shadow=0;fontSize=16;startArrow=none;startFill=0;endArrow=classic;endFill=1;fillColor=#595959;" parent="1" source="g_RVh42yEwUMsMvVFJ3A-14" target="g_RVh42yEwUMsMvVFJ3A-18" edge="1">
          <mxGeometry relative="1" as="geometry" />
        </mxCell>
        <mxCell id="g_RVh42yEwUMsMvVFJ3A-33" value="&lt;div&gt;LOAD&lt;/div&gt;&lt;div&gt;INTO&lt;br&gt;&lt;/div&gt;" style="edgeLabel;html=1;align=center;verticalAlign=middle;resizable=0;points=[];fontSize=16;" parent="g_RVh42yEwUMsMvVFJ3A-32" vertex="1" connectable="0">
          <mxGeometry x="-0.1156" y="1" relative="1" as="geometry">
            <mxPoint as="offset" />
          </mxGeometry>
        </mxCell>
        <mxCell id="g_RVh42yEwUMsMvVFJ3A-14" value="Image Gallery Page" style="swimlane;fontStyle=0;childLayout=stackLayout;horizontal=1;startSize=30;horizontalStack=0;resizeParent=1;resizeParentMax=0;resizeLast=0;collapsible=1;marginBottom=0;fontSize=16;" parent="1" vertex="1">
          <mxGeometry x="490" y="130" width="220" height="130" as="geometry" />
        </mxCell>
        <mxCell id="g_RVh42yEwUMsMvVFJ3A-15" value="1.view all images with their labels if available&#xa;&#xa;2. search for or rank images&#xa;" style="text;strokeColor=none;fillColor=none;align=left;verticalAlign=top;spacingLeft=4;spacingRight=4;overflow=hidden;points=[[0,0.5],[1,0.5]];portConstraint=eastwest;rotatable=0;fontSize=16;whiteSpace=wrap;" parent="g_RVh42yEwUMsMvVFJ3A-14" vertex="1">
          <mxGeometry y="30" width="220" height="100" as="geometry" />
        </mxCell>
        <mxCell id="g_RVh42yEwUMsMvVFJ3A-18" value="Work Station Page" style="swimlane;fontStyle=0;childLayout=stackLayout;horizontal=1;startSize=30;horizontalStack=0;resizeParent=1;resizeParentMax=0;resizeLast=0;collapsible=1;marginBottom=0;fontSize=16;" parent="1" vertex="1">
          <mxGeometry x="490" y="550" width="220" height="250" as="geometry" />
        </mxCell>
        <mxCell id="g_RVh42yEwUMsMvVFJ3A-19" value="1. display loaded / auto picked image&#xa;&#xa;2. request for label from ML server if the image is not loaded&#xa;&#xa;3. edit / assign label&#xa;&#xa;4. edit ML logic expression&#xa;" style="text;strokeColor=none;fillColor=none;align=left;verticalAlign=top;spacingLeft=4;spacingRight=4;overflow=hidden;points=[[0,0.5],[1,0.5]];portConstraint=eastwest;rotatable=0;fontSize=16;whiteSpace=wrap;" parent="g_RVh42yEwUMsMvVFJ3A-18" vertex="1">
          <mxGeometry y="30" width="220" height="220" as="geometry" />
        </mxCell>
        <mxCell id="g_RVh42yEwUMsMvVFJ3A-27" style="edgeStyle=orthogonalEdgeStyle;rounded=0;orthogonalLoop=1;jettySize=auto;html=1;entryX=0;entryY=0.5;entryDx=0;entryDy=0;shadow=0;fontSize=16;startArrow=none;startFill=0;endArrow=classic;endFill=1;fillColor=#595959;" parent="1" source="g_RVh42yEwUMsMvVFJ3A-9" target="g_RVh42yEwUMsMvVFJ3A-19" edge="1">
          <mxGeometry relative="1" as="geometry" />
        </mxCell>
        <mxCell id="g_RVh42yEwUMsMvVFJ3A-28" value="&lt;div&gt;AUTO&lt;/div&gt;&lt;div&gt;PICK&lt;br&gt;&lt;/div&gt;" style="edgeLabel;html=1;align=center;verticalAlign=middle;resizable=0;points=[];fontSize=16;" parent="g_RVh42yEwUMsMvVFJ3A-27" vertex="1" connectable="0">
          <mxGeometry x="-0.1162" relative="1" as="geometry">
            <mxPoint as="offset" />
          </mxGeometry>
        </mxCell>
        <mxCell id="g_RVh42yEwUMsMvVFJ3A-34" style="edgeStyle=orthogonalEdgeStyle;rounded=0;orthogonalLoop=1;jettySize=auto;html=1;entryX=-0.011;entryY=0.397;entryDx=0;entryDy=0;entryPerimeter=0;shadow=0;fontSize=16;startArrow=none;startFill=0;endArrow=classic;endFill=1;fillColor=#595959;" parent="1" source="g_RVh42yEwUMsMvVFJ3A-9" target="g_RVh42yEwUMsMvVFJ3A-15" edge="1">
          <mxGeometry relative="1" as="geometry" />
        </mxCell>
        <mxCell id="g_RVh42yEwUMsMvVFJ3A-38" value="VISIT" style="text;html=1;align=center;verticalAlign=middle;resizable=0;points=[];autosize=1;strokeColor=none;fillColor=none;fontSize=16;" parent="1" vertex="1">
          <mxGeometry x="40" y="420" width="60" height="20" as="geometry" />
        </mxCell>
        <mxCell id="BcaRZCJnmTh3YWK_XgHJ-2" value="" style="shape=flexArrow;endArrow=classic;html=1;rounded=0;fontSize=16;shadow=0;fillColor=#595959;" parent="1" edge="1">
          <mxGeometry width="50" height="50" relative="1" as="geometry">
            <mxPoint x="56" y="1055" as="sourcePoint" />
            <mxPoint x="146" y="1055" as="targetPoint" />
          </mxGeometry>
        </mxCell>
        <mxCell id="BcaRZCJnmTh3YWK_XgHJ-3" value="VISIT" style="text;html=1;align=center;verticalAlign=middle;resizable=0;points=[];autosize=1;strokeColor=none;fillColor=none;fontSize=16;" parent="1" vertex="1">
          <mxGeometry x="66" y="1030" width="60" height="20" as="geometry" />
        </mxCell>
        <mxCell id="BcaRZCJnmTh3YWK_XgHJ-4" value="Start Page" style="swimlane;fontStyle=0;childLayout=stackLayout;horizontal=1;startSize=30;horizontalStack=0;resizeParent=1;resizeParentMax=0;resizeLast=0;collapsible=1;marginBottom=0;fontSize=16;" parent="1" vertex="1">
          <mxGeometry x="150" y="950" width="120" height="220" as="geometry" />
        </mxCell>
        <mxCell id="BcaRZCJnmTh3YWK_XgHJ-5" value="1. Instruction&#xa;2. Create new labeling rules or browse existing labeling rules&#xa;3. Name your new rule&#xa;" style="text;strokeColor=none;fillColor=none;align=left;verticalAlign=middle;spacingLeft=4;spacingRight=4;overflow=hidden;points=[[0,0.5],[1,0.5]];portConstraint=eastwest;rotatable=0;fontSize=16;whiteSpace=wrap;" parent="BcaRZCJnmTh3YWK_XgHJ-4" vertex="1">
          <mxGeometry y="30" width="120" height="190" as="geometry" />
        </mxCell>
        <mxCell id="BcaRZCJnmTh3YWK_XgHJ-6" value="" style="endArrow=classic;html=1;rounded=0;" parent="1" edge="1">
          <mxGeometry width="50" height="50" relative="1" as="geometry">
            <mxPoint x="270" y="1065" as="sourcePoint" />
            <mxPoint x="340" y="1065" as="targetPoint" />
          </mxGeometry>
        </mxCell>
        <mxCell id="BcaRZCJnmTh3YWK_XgHJ-7" value="Image Gallery Page" style="swimlane;fontStyle=0;childLayout=stackLayout;horizontal=1;startSize=30;horizontalStack=0;resizeParent=1;resizeParentMax=0;resizeLast=0;collapsible=1;marginBottom=0;fontSize=16;" parent="1" vertex="1">
          <mxGeometry x="340" y="950" width="240" height="240" as="geometry" />
        </mxCell>
        <mxCell id="BcaRZCJnmTh3YWK_XgHJ-8" value="1. Pick Group A (training) images.&#xa;&#xa;2. Pick Group B (testing) images.&#xa;&#xa;3. Or automatically pick several images" style="text;strokeColor=none;fillColor=none;align=left;verticalAlign=middle;spacingLeft=4;spacingRight=4;overflow=hidden;points=[[0,0.5],[1,0.5]];portConstraint=eastwest;rotatable=0;fontSize=16;whiteSpace=wrap;" parent="BcaRZCJnmTh3YWK_XgHJ-7" vertex="1">
          <mxGeometry y="30" width="240" height="210" as="geometry" />
        </mxCell>
        <mxCell id="BcaRZCJnmTh3YWK_XgHJ-10" value="Below is Eric&#39;s work, not finished and may contain mistakes. PLEASE NOT MOVE" style="rounded=0;whiteSpace=wrap;html=1;fillColor=#dae8fc;strokeColor=#6c8ebf;" parent="1" vertex="1">
          <mxGeometry x="90" y="850" width="260" height="50" as="geometry" />
        </mxCell>
        <mxCell id="F2cL5pHydMBEZYkqf1JW-2" value="" style="endArrow=classic;html=1;rounded=0;" edge="1" parent="1">
          <mxGeometry width="50" height="50" relative="1" as="geometry">
            <mxPoint x="581" y="1069.52" as="sourcePoint" />
            <mxPoint x="730" y="1070" as="targetPoint" />
          </mxGeometry>
        </mxCell>
        <mxCell id="F2cL5pHydMBEZYkqf1JW-5" value="Image Working Station" style="swimlane;fontStyle=0;childLayout=stackLayout;horizontal=1;startSize=30;horizontalStack=0;resizeParent=1;resizeParentMax=0;resizeLast=0;collapsible=1;marginBottom=0;fontSize=16;" vertex="1" parent="1">
          <mxGeometry x="730" y="950" width="220" height="290" as="geometry" />
        </mxCell>
        <mxCell id="F2cL5pHydMBEZYkqf1JW-6" value="1. Labeling images in bounding boxes&#xa;&#xa;2. Presenting auto labels or existing labels on images by rules and pre-trained model. If user initially selected exisiting rules, show the predicted labels.&#xa;&#xa;3. Able to modify labels &#xa;&#xa;4. Save any modification" style="text;strokeColor=none;fillColor=none;align=left;verticalAlign=top;spacingLeft=4;spacingRight=4;overflow=hidden;points=[[0,0.5],[1,0.5]];portConstraint=eastwest;rotatable=0;fontSize=16;whiteSpace=wrap;" vertex="1" parent="F2cL5pHydMBEZYkqf1JW-5">
          <mxGeometry y="30" width="220" height="260" as="geometry" />
        </mxCell>
        <mxCell id="F2cL5pHydMBEZYkqf1JW-7" value="" style="endArrow=classic;html=1;rounded=0;" edge="1" parent="F2cL5pHydMBEZYkqf1JW-5">
          <mxGeometry width="50" height="50" relative="1" as="geometry">
            <mxPoint x="100" y="290" as="sourcePoint" />
            <mxPoint x="100" y="390" as="targetPoint" />
          </mxGeometry>
        </mxCell>
        <mxCell id="F2cL5pHydMBEZYkqf1JW-3" value="NO MORE&lt;br&gt;MODIFICATION" style="edgeLabel;html=1;align=center;verticalAlign=middle;resizable=0;points=[];fontSize=16;labelBorderColor=none;labelBackgroundColor=#FFFFFF;" vertex="1" connectable="0" parent="1">
          <mxGeometry x="880" y="1130.0014285714287" as="geometry">
            <mxPoint x="-46" y="157" as="offset" />
          </mxGeometry>
        </mxCell>
        <mxCell id="F2cL5pHydMBEZYkqf1JW-8" value="Rule Training " style="swimlane;fontStyle=0;childLayout=stackLayout;horizontal=1;startSize=30;horizontalStack=0;resizeParent=1;resizeParentMax=0;resizeLast=0;collapsible=1;marginBottom=0;fontSize=16;" vertex="1" parent="1">
          <mxGeometry x="730" y="1340" width="220" height="250" as="geometry" />
        </mxCell>
        <mxCell id="F2cL5pHydMBEZYkqf1JW-9" value="1. Training labeling rules by labeled group A images and group B images (if modified labels)&#xa;&#xa;2. Presenting labeling rules to user&#xa;&#xa;3. Modify labeling rules&#xa;&#xa;4. Save any modification" style="text;strokeColor=none;fillColor=none;align=left;verticalAlign=top;spacingLeft=4;spacingRight=4;overflow=hidden;points=[[0,0.5],[1,0.5]];portConstraint=eastwest;rotatable=0;fontSize=16;whiteSpace=wrap;" vertex="1" parent="F2cL5pHydMBEZYkqf1JW-8">
          <mxGeometry y="30" width="220" height="220" as="geometry" />
        </mxCell>
        <mxCell id="F2cL5pHydMBEZYkqf1JW-19" value="" style="endArrow=classic;html=1;rounded=0;" edge="1" parent="F2cL5pHydMBEZYkqf1JW-8">
          <mxGeometry width="50" height="50" relative="1" as="geometry">
            <mxPoint x="-1.1100000000000136" y="130" as="sourcePoint" />
            <mxPoint x="-200" y="130" as="targetPoint" />
          </mxGeometry>
        </mxCell>
        <mxCell id="F2cL5pHydMBEZYkqf1JW-13" value="INPUT&lt;br&gt;GROUP A&lt;br&gt;IMAGES" style="edgeLabel;html=1;align=center;verticalAlign=middle;resizable=0;points=[];fontSize=16;" vertex="1" connectable="0" parent="1">
          <mxGeometry x="650" y="1069.9955555555555" as="geometry" />
        </mxCell>
        <mxCell id="F2cL5pHydMBEZYkqf1JW-14" value="" style="endArrow=none;html=1;rounded=0;" edge="1" parent="1">
          <mxGeometry width="50" height="50" relative="1" as="geometry">
            <mxPoint x="950" y="1440" as="sourcePoint" />
            <mxPoint x="1020" y="1440" as="targetPoint" />
          </mxGeometry>
        </mxCell>
        <mxCell id="F2cL5pHydMBEZYkqf1JW-15" value="" style="endArrow=none;html=1;rounded=0;" edge="1" parent="1">
          <mxGeometry width="50" height="50" relative="1" as="geometry">
            <mxPoint x="1020" y="1440" as="sourcePoint" />
            <mxPoint x="1020" y="1040" as="targetPoint" />
          </mxGeometry>
        </mxCell>
        <mxCell id="F2cL5pHydMBEZYkqf1JW-16" value="" style="endArrow=classic;html=1;rounded=0;entryX=0.995;entryY=0.23;entryDx=0;entryDy=0;entryPerimeter=0;" edge="1" parent="1" target="F2cL5pHydMBEZYkqf1JW-6">
          <mxGeometry width="50" height="50" relative="1" as="geometry">
            <mxPoint x="1020" y="1040" as="sourcePoint" />
            <mxPoint x="970" y="1310" as="targetPoint" />
          </mxGeometry>
        </mxCell>
        <mxCell id="F2cL5pHydMBEZYkqf1JW-17" value="INPUT&lt;br&gt;GROUP B&lt;br&gt;IMAGES" style="edgeLabel;html=1;align=center;verticalAlign=middle;resizable=0;points=[];fontSize=16;" vertex="1" connectable="0" parent="1">
          <mxGeometry x="1040" y="1249.9955555555555" as="geometry">
            <mxPoint x="-18" y="-4" as="offset" />
          </mxGeometry>
        </mxCell>
        <mxCell id="F2cL5pHydMBEZYkqf1JW-18" value="NO MORE&lt;br&gt;MODIFICATION" style="edgeLabel;html=1;align=center;verticalAlign=middle;resizable=0;points=[];fontSize=16;labelBorderColor=none;labelBackgroundColor=#FFFFFF;" vertex="1" connectable="0" parent="1">
          <mxGeometry x="680" y="1310.0014285714287" as="geometry">
            <mxPoint x="-46" y="157" as="offset" />
          </mxGeometry>
        </mxCell>
        <mxCell id="F2cL5pHydMBEZYkqf1JW-20" value="End Page" style="swimlane;fontStyle=0;childLayout=stackLayout;horizontal=1;startSize=30;horizontalStack=0;resizeParent=1;resizeParentMax=0;resizeLast=0;collapsible=1;marginBottom=0;fontSize=16;" vertex="1" parent="1">
          <mxGeometry x="330" y="1420" width="200" height="110" as="geometry" />
        </mxCell>
        <mxCell id="F2cL5pHydMBEZYkqf1JW-21" value="1. Save created labeling rules." style="text;strokeColor=none;fillColor=none;align=left;verticalAlign=middle;spacingLeft=4;spacingRight=4;overflow=hidden;points=[[0,0.5],[1,0.5]];portConstraint=eastwest;rotatable=0;fontSize=16;whiteSpace=wrap;" vertex="1" parent="F2cL5pHydMBEZYkqf1JW-20">
          <mxGeometry y="30" width="200" height="80" as="geometry" />
        </mxCell>
      </root>
    </mxGraphModel>
  </diagram>
  <diagram id="Duz-_O268H7gZ4dPwLsp" name="Server 1">
    <mxGraphModel dx="1038" dy="536" grid="1" gridSize="10" guides="1" tooltips="1" connect="1" arrows="1" fold="1" page="1" pageScale="1" pageWidth="850" pageHeight="1100" math="0" shadow="0">
      <root>
        <mxCell id="0" />
        <mxCell id="1" parent="0" />
      </root>
    </mxGraphModel>
  </diagram>
  <diagram id="AcOgOhmYx5mgDnrSKiOU" name="Server 2">
    <mxGraphModel dx="1038" dy="536" grid="1" gridSize="10" guides="1" tooltips="1" connect="1" arrows="1" fold="1" page="1" pageScale="1" pageWidth="850" pageHeight="1100" math="0" shadow="0">
      <root>
        <mxCell id="0" />
        <mxCell id="1" parent="0" />
      </root>
    </mxGraphModel>
  </diagram>
</mxfile>
